<svg width="694" height="850" viewBox="0 0 694 850" fill="none" xmlns="http://www.w3.org/2000/svg">
<g filter="url(#filter0_d_524_336)">
<path d="M82.3491 268.548C102.809 110.481 206.66 -7.58426 322.541 0.597483C370.286 3.96851 403.141 35.2708 424.728 82.3513C439.493 79.8388 454.739 79.0362 470.263 80.1323C581.529 87.9883 607.031 221.132 598.67 339.545C597.192 360.48 594.752 379.553 591.125 396.724C650.683 434.604 690.252 504.207 689.459 583.415C688.271 702.117 596.889 797.438 485.351 796.322C465.834 796.127 448.706 791.942 433.735 784.536C406.883 816.303 359.778 831.866 293.86 838.399C175.732 850.106 41.9207 828.383 30.92 717.383C26.3409 671.179 38.7149 626.972 63.242 590.261C23.1867 547.919 0.181338 487.826 4.76491 422.906C9.21922 359.819 38.8281 304.904 82.3491 268.548Z" fill="white"/>
</g>
<defs>
<filter id="filter0_d_524_336" x="0.187592" y="0.196777" width="693.283" height="849.028" filterUnits="userSpaceOnUse" color-interpolation-filters="sRGB">
<feFlood flood-opacity="0" result="BackgroundImageFix"/>
<feColorMatrix in="SourceAlpha" type="matrix" values="0 0 0 0 0 0 0 0 0 0 0 0 0 0 0 0 0 0 127 0" result="hardAlpha"/>
<feOffset dy="4"/>
<feGaussianBlur stdDeviation="2"/>
<feComposite in2="hardAlpha" operator="out"/>
<feColorMatrix type="matrix" values="0 0 0 0 0 0 0 0 0 0 0 0 0 0 0 0 0 0 0.25 0"/>
<feBlend mode="normal" in2="BackgroundImageFix" result="effect1_dropShadow_524_336"/>
<feBlend mode="normal" in="SourceGraphic" in2="effect1_dropShadow_524_336" result="shape"/>
</filter>
</defs>
</svg>
