<svg width="1512" height="3856" viewBox="0 0 1512 3856" fill="none" xmlns="http://www.w3.org/2000/svg">
<g filter="url(#filter0_d_8_283)">
<path d="M997.349 803C1035.67 803 1069.16 825.444 1087.26 858.878C1101.87 850.408 1118.57 845.604 1136.29 845.604C1184.78 845.605 1225.54 881.542 1237.17 930.209C1244.45 928.459 1252.02 927.535 1259.79 927.535C1317.35 927.535 1364 978.157 1364 1040.6C1364 1103.04 1317.35 1153.67 1259.79 1153.67C1239.41 1153.67 1220.4 1147.31 1204.34 1136.34C1204.43 1138.28 1204.47 1140.23 1204.47 1142.2C1204.47 1204.64 1157.82 1255.26 1100.27 1255.26C1058.92 1255.26 1023.19 1229.13 1006.35 1191.25C989.518 1229.13 953.792 1255.26 912.44 1255.26C855.011 1255.26 808.432 1204.85 808.235 1142.59C794.606 1149.69 779.334 1153.67 763.206 1153.67C705.655 1153.67 659 1103.04 659 1040.6C659 978.157 705.655 927.535 763.206 927.535C771.658 927.535 779.874 928.628 787.742 930.688C787.681 929.099 787.649 927.502 787.649 925.896C787.65 863.453 834.304 812.832 891.855 812.832C908.003 812.832 923.293 816.818 936.935 823.931C953.976 810.752 974.828 803 997.349 803Z" fill="white"/>
</g>
<g filter="url(#filter1_d_8_283)">
<path d="M375.516 399.601C375.516 448.502 331.358 488.145 276.885 488.145C222.413 488.145 178.255 448.502 178.255 399.601C178.255 350.699 222.413 311.056 276.885 311.056C331.358 311.056 375.516 350.699 375.516 399.601Z" fill="white"/>
<path d="M476.13 510.634C476.13 559.535 372.093 599.178 301.152 599.178C230.212 599.178 146 563.795 146 514.893C146 465.991 230.212 426.883 301.152 426.883C372.093 426.883 476.13 461.732 476.13 510.634Z" fill="white"/>
<path d="M664.503 371.109C664.503 440.757 578.754 497.218 472.976 497.218C367.199 497.218 273.754 461.759 273.754 392.111C273.754 322.463 367.199 245 472.976 245C578.754 245 664.503 301.461 664.503 371.109Z" fill="white"/>
<path d="M947.257 470.083C947.257 541.954 864.075 600.217 761.465 600.217C658.855 600.217 575.672 541.954 575.672 470.083C575.672 398.212 658.855 339.949 761.465 339.949C864.075 339.949 947.257 398.212 947.257 470.083Z" fill="white"/>
<path d="M714.829 493.891C714.829 563.539 629.079 620 523.302 620C417.525 620 324.08 584.541 324.08 514.893C324.08 445.245 417.525 367.782 523.302 367.782C629.079 367.782 714.829 424.243 714.829 493.891Z" fill="white"/>
</g>
<g filter="url(#filter2_d_8_283)">
<path d="M477.15 1525C514.656 1525 547.431 1546.28 565.148 1577.99C579.451 1569.95 595.787 1565.4 613.136 1565.4C660.595 1565.4 700.482 1599.48 711.865 1645.63C718.995 1643.97 726.406 1643.09 734.011 1643.09C790.338 1643.09 836 1691.09 836 1750.3C836 1809.52 790.338 1857.52 734.011 1857.52C714.062 1857.52 695.453 1851.5 679.734 1841.09C679.824 1842.93 679.868 1844.78 679.868 1846.64C679.868 1905.86 634.207 1953.86 577.88 1953.86C537.407 1953.86 502.441 1929.07 485.963 1893.16C469.485 1929.07 434.519 1953.86 394.047 1953.86C337.839 1953.86 292.252 1906.06 292.06 1847.02C278.72 1853.75 263.774 1857.52 247.989 1857.52C191.662 1857.52 146 1809.52 146 1750.3C146 1699.11 180.139 1656.29 225.793 1645.64C229.5 1589.97 273.631 1546.02 327.528 1546.02C352.566 1546.02 375.497 1555.51 393.246 1571.24C411.655 1543.3 442.37 1525 477.15 1525Z" fill="white"/>
</g>
<defs>
<filter id="filter0_d_8_283" x="655" y="803" width="713" height="460.261" filterUnits="userSpaceOnUse" color-interpolation-filters="sRGB">
<feFlood flood-opacity="0" result="BackgroundImageFix"/>
<feColorMatrix in="SourceAlpha" type="matrix" values="0 0 0 0 0 0 0 0 0 0 0 0 0 0 0 0 0 0 127 0" result="hardAlpha"/>
<feOffset dy="4"/>
<feGaussianBlur stdDeviation="2"/>
<feComposite in2="hardAlpha" operator="out"/>
<feColorMatrix type="matrix" values="0 0 0 0 0 0 0 0 0 0 0 0 0 0 0 0 0 0 0.25 0"/>
<feBlend mode="normal" in2="BackgroundImageFix" result="effect1_dropShadow_8_283"/>
<feBlend mode="normal" in="SourceGraphic" in2="effect1_dropShadow_8_283" result="shape"/>
</filter>
<filter id="filter1_d_8_283" x="142" y="245" width="809.257" height="383" filterUnits="userSpaceOnUse" color-interpolation-filters="sRGB">
<feFlood flood-opacity="0" result="BackgroundImageFix"/>
<feColorMatrix in="SourceAlpha" type="matrix" values="0 0 0 0 0 0 0 0 0 0 0 0 0 0 0 0 0 0 127 0" result="hardAlpha"/>
<feOffset dy="4"/>
<feGaussianBlur stdDeviation="2"/>
<feComposite in2="hardAlpha" operator="out"/>
<feColorMatrix type="matrix" values="0 0 0 0 0 0 0 0 0 0 0 0 0 0 0 0 0 0 0.25 0"/>
<feBlend mode="normal" in2="BackgroundImageFix" result="effect1_dropShadow_8_283"/>
<feBlend mode="normal" in="SourceGraphic" in2="effect1_dropShadow_8_283" result="shape"/>
</filter>
<filter id="filter2_d_8_283" x="143" y="1525" width="696" height="435.856" filterUnits="userSpaceOnUse" color-interpolation-filters="sRGB">
<feFlood flood-opacity="0" result="BackgroundImageFix"/>
<feColorMatrix in="SourceAlpha" type="matrix" values="0 0 0 0 0 0 0 0 0 0 0 0 0 0 0 0 0 0 127 0" result="hardAlpha"/>
<feOffset dy="4"/>
<feGaussianBlur stdDeviation="1.5"/>
<feComposite in2="hardAlpha" operator="out"/>
<feColorMatrix type="matrix" values="0 0 0 0 0 0 0 0 0 0 0 0 0 0 0 0 0 0 0.25 0"/>
<feBlend mode="normal" in2="BackgroundImageFix" result="effect1_dropShadow_8_283"/>
<feBlend mode="normal" in="SourceGraphic" in2="effect1_dropShadow_8_283" result="shape"/>
</filter>
</defs>
</svg>
