<svg width="1138" height="1675" viewBox="0 0 1138 1675" fill="none" xmlns="http://www.w3.org/2000/svg">
<g filter="url(#filter0_d_22_47)">
<path d="M90.1436 6.16772C138.256 6.16794 177.259 45.1972 177.259 93.3416C177.259 130.982 153.418 163.049 120.023 175.251V255.088C129.433 401.507 135.443 624.56 135.443 874.415C135.443 1315.42 116.722 1672.92 93.6279 1672.92C70.5338 1672.92 51.8125 1315.42 51.8125 874.415C51.8125 623.296 57.8826 399.252 67.374 252.873V177.507C30.3039 167.489 3.02736 133.603 3.02734 93.3416C3.02734 45.197 42.0308 6.16772 90.1436 6.16772Z" fill="#89B7B7"/>
</g>
<g filter="url(#filter1_d_22_47)">
<path d="M1041.12 6.16772C1089.23 6.16772 1128.24 45.197 1128.24 93.3416C1128.24 130.499 1105 162.226 1072.28 174.771V275.799C1080.95 422.108 1086.42 636.066 1086.42 874.415C1086.42 1315.42 1067.7 1672.92 1044.6 1672.92C1021.51 1672.92 1002.79 1315.42 1002.79 874.415C1002.79 612.197 1009.41 379.499 1019.63 233.922V177.841C981.91 168.264 954.004 134.065 954.004 93.3416C954.004 45.197 993.007 6.16774 1041.12 6.16772Z" fill="#C691AB"/>
</g>
<g filter="url(#filter2_d_22_47)">
<rect x="85.5" y="242.075" width="950" height="950.627" rx="25" fill="#B7C8CF"/>
</g>
<rect x="103.095" y="259.279" width="906.58" height="912.548" rx="22.5" stroke="white" stroke-width="5"/>
<defs>
<filter id="filter0_d_22_47" x="3.02734" y="0.167725" width="183.231" height="1674.75" filterUnits="userSpaceOnUse" color-interpolation-filters="sRGB">
<feFlood flood-opacity="0" result="BackgroundImageFix"/>
<feColorMatrix in="SourceAlpha" type="matrix" values="0 0 0 0 0 0 0 0 0 0 0 0 0 0 0 0 0 0 127 0" result="hardAlpha"/>
<feOffset dx="5" dy="-2"/>
<feGaussianBlur stdDeviation="2"/>
<feComposite in2="hardAlpha" operator="out"/>
<feColorMatrix type="matrix" values="0 0 0 0 0 0 0 0 0 0 0 0 0 0 0 0 0 0 0.25 0"/>
<feBlend mode="normal" in2="BackgroundImageFix" result="effect1_dropShadow_22_47"/>
<feBlend mode="normal" in="SourceGraphic" in2="effect1_dropShadow_22_47" result="shape"/>
</filter>
<filter id="filter1_d_22_47" x="954.004" y="0.167725" width="183.232" height="1674.75" filterUnits="userSpaceOnUse" color-interpolation-filters="sRGB">
<feFlood flood-opacity="0" result="BackgroundImageFix"/>
<feColorMatrix in="SourceAlpha" type="matrix" values="0 0 0 0 0 0 0 0 0 0 0 0 0 0 0 0 0 0 127 0" result="hardAlpha"/>
<feOffset dx="5" dy="-2"/>
<feGaussianBlur stdDeviation="2"/>
<feComposite in2="hardAlpha" operator="out"/>
<feColorMatrix type="matrix" values="0 0 0 0 0 0 0 0 0 0 0 0 0 0 0 0 0 0 0.25 0"/>
<feBlend mode="normal" in2="BackgroundImageFix" result="effect1_dropShadow_22_47"/>
<feBlend mode="normal" in="SourceGraphic" in2="effect1_dropShadow_22_47" result="shape"/>
</filter>
<filter id="filter2_d_22_47" x="81.5" y="242.075" width="958" height="958.627" filterUnits="userSpaceOnUse" color-interpolation-filters="sRGB">
<feFlood flood-opacity="0" result="BackgroundImageFix"/>
<feColorMatrix in="SourceAlpha" type="matrix" values="0 0 0 0 0 0 0 0 0 0 0 0 0 0 0 0 0 0 127 0" result="hardAlpha"/>
<feOffset dy="4"/>
<feGaussianBlur stdDeviation="2"/>
<feComposite in2="hardAlpha" operator="out"/>
<feColorMatrix type="matrix" values="0 0 0 0 0 0 0 0 0 0 0 0 0 0 0 0 0 0 0.25 0"/>
<feBlend mode="normal" in2="BackgroundImageFix" result="effect1_dropShadow_22_47"/>
<feBlend mode="normal" in="SourceGraphic" in2="effect1_dropShadow_22_47" result="shape"/>
</filter>
</defs>
</svg>
