<svg width="1512" height="3863" viewBox="0 0 1512 3863" fill="none" xmlns="http://www.w3.org/2000/svg">
<g clip-path="url(#clip0_13_537)">
<rect width="1512" height="3863" fill="#6B892B"/>
<path d="M-15 -25.5H1539V2430.5H-15V-25.5Z" fill="#DAF1F7"/>
<g filter="url(#filter0_d_13_537)">
<path fill-rule="evenodd" clip-rule="evenodd" d="M700.827 500.095C732.638 491.407 764 515.352 764 548.328V2602.84H61V713.017C61 690.476 76.0822 670.722 97.8267 664.783L700.827 500.095Z" fill="#F1894C"/>
</g>
<rect x="201" y="1952" width="166.68" height="212.98" rx="2" fill="#E0E1E1"/>
<rect x="200" y="1563" width="166.68" height="212.98" rx="2" fill="#E0E1E1"/>
<rect x="437" y="1563" width="166.68" height="212.98" rx="2" fill="#E0E1E1"/>
<rect x="437" y="1951.92" width="166.68" height="212.98" rx="2" fill="#E0E1E1"/>
<g filter="url(#filter1_d_13_537)">
<path fill-rule="evenodd" clip-rule="evenodd" d="M1461.87 885C1489.49 885 1511.87 907.386 1511.87 935V1739.13C1511.96 1740.32 1512 1741.51 1512 1742.71V2489.71H1511.87V2490H911.874V2489.71H362V1742.71C362 1715.1 384.386 1692.71 412 1692.71H911.874V935C911.874 907.386 934.26 885 961.874 885H1461.87Z" fill="#99C440"/>
</g>
<rect x="1014" y="2204" width="166.68" height="212.98" rx="2" fill="#E0E1E1"/>
<rect x="1013" y="1815" width="166.68" height="212.98" rx="2" fill="#E0E1E1"/>
<rect x="1013" y="1401" width="166.68" height="212.98" rx="2" fill="#E0E1E1"/>
<rect x="1012" y="1012" width="166.68" height="212.98" rx="2" fill="#E0E1E1"/>
<rect x="1274" y="1401" width="166.68" height="212.98" rx="2" fill="#E0E1E1"/>
<rect x="1273" y="1012" width="166.68" height="212.98" rx="2" fill="#E0E1E1"/>
<rect x="716" y="2204" width="166.68" height="212.98" rx="2" fill="#E0E1E1"/>
<rect x="715" y="1815" width="166.68" height="212.98" rx="2" fill="#E0E1E1"/>
<rect x="461" y="2204" width="166.68" height="212.98" rx="2" fill="#E0E1E1"/>
<rect x="460" y="1815" width="166.68" height="212.98" rx="2" fill="#E0E1E1"/>
<rect x="1273" y="2204" width="166.68" height="212.98" rx="2" fill="#E0E1E1"/>
<rect x="1272" y="1815" width="166.68" height="212.98" rx="2" fill="#E0E1E1"/>
<rect x="1013" y="2716" width="166.68" height="212.98" rx="2" fill="#E0E1E1"/>
<rect x="1012" y="2327" width="166.68" height="212.98" rx="2" fill="#E0E1E1"/>
<rect x="-23" y="2490" width="1556" height="1199" fill="#6D6E72"/>
<path d="M1554.6 3088L1554.99 3088C1563.09 3087.79 1569.6 3081.15 1569.6 3073C1569.6 3064.85 1563.09 3058.21 1554.99 3058L1554.6 3058H1268C1259.72 3058 1253 3064.72 1253 3073C1253 3081.28 1259.72 3088 1268 3088H1554.6Z" fill="white"/>
<path fill-rule="evenodd" clip-rule="evenodd" d="M1067.6 3058H781V3088H1067.6V3058Z" fill="white"/>
<path fill-rule="evenodd" clip-rule="evenodd" d="M580.599 3058H294V3088H580.599V3058Z" fill="white"/>
<path d="M93.5996 3088L93.9863 3088C102.092 3087.79 108.6 3081.15 108.6 3073C108.6 3064.85 102.092 3058.21 93.9863 3058L93.5996 3058H-193C-201.284 3058 -208 3064.72 -208 3073C-208 3081.28 -201.284 3088 -193 3088H93.5996Z" fill="white"/>
<g filter="url(#filter2_d_13_537)">
<path d="M968.255 260C1016.31 260 1058.3 288.142 1081 330.064C1099.32 319.444 1120.25 313.421 1142.47 313.421C1203.28 313.421 1254.38 358.484 1268.96 419.509C1278.1 417.314 1287.59 416.155 1297.33 416.155C1369.5 416.155 1428 479.629 1428 557.928C1428 636.226 1369.5 699.7 1297.33 699.7C1271.78 699.7 1247.94 691.737 1227.8 677.976C1227.91 680.407 1227.97 682.854 1227.97 685.316C1227.97 763.615 1169.47 827.089 1097.31 827.089C1045.46 827.089 1000.66 794.319 979.548 746.826C958.437 794.319 913.64 827.089 861.789 827.089C789.778 827.089 731.374 763.884 731.127 685.814C714.037 694.713 694.887 699.7 674.664 699.7C602.5 699.7 544 636.226 544 557.928C544 479.629 602.5 416.155 674.664 416.155C685.262 416.155 695.564 417.525 705.431 420.108C705.354 418.116 705.313 416.112 705.313 414.1C705.314 335.801 763.815 272.328 835.979 272.328C856.225 272.328 875.396 277.325 892.502 286.244C913.87 269.72 940.016 260 968.255 260Z" fill="white"/>
</g>
<rect x="696" y="2323" width="166.68" height="212.98" rx="1" fill="#E0E1E1"/>
<rect x="413" y="2323" width="166.68" height="212.98" rx="1" fill="#E0E1E1"/>
<rect x="195" y="797" width="166.68" height="212.98" rx="1" fill="#E0E1E1"/>
<rect x="195" y="1190" width="166.68" height="212.98" rx="1" fill="#E0E1E1"/>
<rect x="449" y="799" width="166.68" height="212.98" rx="2" fill="#E0E1E1"/>
<rect x="449" y="1187.92" width="166.68" height="212.98" rx="1" fill="#E0E1E1"/>
<g filter="url(#filter3_d_13_537)">
<path d="M237.144 2058.17C285.256 2058.17 324.259 2097.2 324.259 2145.34C324.259 2182.98 300.418 2215.05 267.023 2227.25V2307.09C276.433 2453.51 282.443 2676.56 282.443 2926.41C282.443 3367.42 263.722 3724.92 240.628 3724.92C217.534 3724.92 198.812 3367.42 198.812 2926.41C198.812 2675.3 204.883 2451.25 214.374 2304.87V2229.51C177.304 2219.49 150.027 2185.6 150.027 2145.34C150.027 2097.2 189.031 2058.17 237.144 2058.17Z" fill="#89B7B7"/>
</g>
<g filter="url(#filter4_d_13_537)">
<path d="M1188.12 2058.17C1236.23 2058.17 1275.24 2097.2 1275.24 2145.34C1275.24 2182.5 1252 2214.23 1219.28 2226.77V2327.8C1227.95 2474.11 1233.42 2688.07 1233.42 2926.41C1233.42 3367.42 1214.7 3724.92 1191.6 3724.92C1168.51 3724.92 1149.79 3367.42 1149.79 2926.41C1149.79 2664.2 1156.41 2431.5 1166.63 2285.92V2229.84C1128.91 2220.26 1101 2186.06 1101 2145.34C1101 2097.2 1140.01 2058.17 1188.12 2058.17Z" fill="#C691AB"/>
</g>
<g filter="url(#filter5_d_13_537)">
<rect x="232.5" y="2294.08" width="950" height="950.627" rx="25" fill="#B7C8CF"/>
</g>
<rect x="250.095" y="2311.28" width="906.58" height="912.548" rx="22.5" stroke="white" stroke-width="5"/>
<g filter="url(#filter6_d_13_537)">
<path d="M390.885 1064.34C390.885 1138.15 324.145 1197.99 241.817 1197.99C159.489 1197.99 92.7491 1138.15 92.7491 1064.34C92.7491 990.535 159.489 930.701 241.817 930.701C324.145 930.701 390.885 990.535 390.885 1064.34Z" fill="white"/>
<path d="M542.95 1231.93C542.95 1305.74 385.711 1365.57 278.493 1365.57C171.275 1365.57 44 1312.17 44 1238.36C44 1164.55 171.275 1105.52 278.493 1105.52C385.711 1105.52 542.95 1158.12 542.95 1231.93Z" fill="white"/>
<path d="M827.653 1021.34C827.653 1126.46 698.053 1211.68 538.184 1211.68C378.315 1211.68 237.084 1158.16 237.084 1053.04C237.084 947.917 378.315 831 538.184 831C698.053 831 827.653 916.218 827.653 1021.34Z" fill="white"/>
<path d="M1255 1170.73C1255 1279.2 1129.28 1367.14 974.198 1367.14C819.115 1367.14 693.396 1279.2 693.396 1170.73C693.396 1062.25 819.115 974.31 974.198 974.31C1129.28 974.31 1255 1062.25 1255 1170.73Z" fill="white"/>
<path d="M903.713 1206.66C903.713 1311.78 774.114 1397 614.245 1397C454.375 1397 313.145 1343.48 313.145 1238.36C313.145 1133.24 454.375 1016.32 614.245 1016.32C774.114 1016.32 903.713 1101.54 903.713 1206.66Z" fill="white"/>
</g>
</g>
<defs>
<filter id="filter0_d_13_537" x="57" y="498.3" width="711" height="2112.54" filterUnits="userSpaceOnUse" color-interpolation-filters="sRGB">
<feFlood flood-opacity="0" result="BackgroundImageFix"/>
<feColorMatrix in="SourceAlpha" type="matrix" values="0 0 0 0 0 0 0 0 0 0 0 0 0 0 0 0 0 0 127 0" result="hardAlpha"/>
<feOffset dy="4"/>
<feGaussianBlur stdDeviation="2"/>
<feComposite in2="hardAlpha" operator="out"/>
<feColorMatrix type="matrix" values="0 0 0 0 0 0 0 0 0 0 0 0 0 0 0 0 0 0 0.25 0"/>
<feBlend mode="normal" in2="BackgroundImageFix" result="effect1_dropShadow_13_537"/>
<feBlend mode="normal" in="SourceGraphic" in2="effect1_dropShadow_13_537" result="shape"/>
</filter>
<filter id="filter1_d_13_537" x="359" y="885" width="1156" height="1612" filterUnits="userSpaceOnUse" color-interpolation-filters="sRGB">
<feFlood flood-opacity="0" result="BackgroundImageFix"/>
<feColorMatrix in="SourceAlpha" type="matrix" values="0 0 0 0 0 0 0 0 0 0 0 0 0 0 0 0 0 0 127 0" result="hardAlpha"/>
<feOffset dy="4"/>
<feGaussianBlur stdDeviation="1.5"/>
<feComposite in2="hardAlpha" operator="out"/>
<feColorMatrix type="matrix" values="0 0 0 0 0 0 0 0 0 0 0 0 0 0 0 0 0 0 0.25 0"/>
<feBlend mode="normal" in2="BackgroundImageFix" result="effect1_dropShadow_13_537"/>
<feBlend mode="normal" in="SourceGraphic" in2="effect1_dropShadow_13_537" result="shape"/>
</filter>
<filter id="filter2_d_13_537" x="540" y="260" width="892" height="575.089" filterUnits="userSpaceOnUse" color-interpolation-filters="sRGB">
<feFlood flood-opacity="0" result="BackgroundImageFix"/>
<feColorMatrix in="SourceAlpha" type="matrix" values="0 0 0 0 0 0 0 0 0 0 0 0 0 0 0 0 0 0 127 0" result="hardAlpha"/>
<feOffset dy="4"/>
<feGaussianBlur stdDeviation="2"/>
<feComposite in2="hardAlpha" operator="out"/>
<feColorMatrix type="matrix" values="0 0 0 0 0 0 0 0 0 0 0 0 0 0 0 0 0 0 0.25 0"/>
<feBlend mode="normal" in2="BackgroundImageFix" result="effect1_dropShadow_13_537"/>
<feBlend mode="normal" in="SourceGraphic" in2="effect1_dropShadow_13_537" result="shape"/>
</filter>
<filter id="filter3_d_13_537" x="150.027" y="2052.17" width="183.231" height="1674.75" filterUnits="userSpaceOnUse" color-interpolation-filters="sRGB">
<feFlood flood-opacity="0" result="BackgroundImageFix"/>
<feColorMatrix in="SourceAlpha" type="matrix" values="0 0 0 0 0 0 0 0 0 0 0 0 0 0 0 0 0 0 127 0" result="hardAlpha"/>
<feOffset dx="5" dy="-2"/>
<feGaussianBlur stdDeviation="2"/>
<feComposite in2="hardAlpha" operator="out"/>
<feColorMatrix type="matrix" values="0 0 0 0 0 0 0 0 0 0 0 0 0 0 0 0 0 0 0.25 0"/>
<feBlend mode="normal" in2="BackgroundImageFix" result="effect1_dropShadow_13_537"/>
<feBlend mode="normal" in="SourceGraphic" in2="effect1_dropShadow_13_537" result="shape"/>
</filter>
<filter id="filter4_d_13_537" x="1101" y="2052.17" width="183.232" height="1674.75" filterUnits="userSpaceOnUse" color-interpolation-filters="sRGB">
<feFlood flood-opacity="0" result="BackgroundImageFix"/>
<feColorMatrix in="SourceAlpha" type="matrix" values="0 0 0 0 0 0 0 0 0 0 0 0 0 0 0 0 0 0 127 0" result="hardAlpha"/>
<feOffset dx="5" dy="-2"/>
<feGaussianBlur stdDeviation="2"/>
<feComposite in2="hardAlpha" operator="out"/>
<feColorMatrix type="matrix" values="0 0 0 0 0 0 0 0 0 0 0 0 0 0 0 0 0 0 0.25 0"/>
<feBlend mode="normal" in2="BackgroundImageFix" result="effect1_dropShadow_13_537"/>
<feBlend mode="normal" in="SourceGraphic" in2="effect1_dropShadow_13_537" result="shape"/>
</filter>
<filter id="filter5_d_13_537" x="228.5" y="2294.08" width="958" height="958.627" filterUnits="userSpaceOnUse" color-interpolation-filters="sRGB">
<feFlood flood-opacity="0" result="BackgroundImageFix"/>
<feColorMatrix in="SourceAlpha" type="matrix" values="0 0 0 0 0 0 0 0 0 0 0 0 0 0 0 0 0 0 127 0" result="hardAlpha"/>
<feOffset dy="4"/>
<feGaussianBlur stdDeviation="2"/>
<feComposite in2="hardAlpha" operator="out"/>
<feColorMatrix type="matrix" values="0 0 0 0 0 0 0 0 0 0 0 0 0 0 0 0 0 0 0.25 0"/>
<feBlend mode="normal" in2="BackgroundImageFix" result="effect1_dropShadow_13_537"/>
<feBlend mode="normal" in="SourceGraphic" in2="effect1_dropShadow_13_537" result="shape"/>
</filter>
<filter id="filter6_d_13_537" x="40" y="831" width="1219" height="574" filterUnits="userSpaceOnUse" color-interpolation-filters="sRGB">
<feFlood flood-opacity="0" result="BackgroundImageFix"/>
<feColorMatrix in="SourceAlpha" type="matrix" values="0 0 0 0 0 0 0 0 0 0 0 0 0 0 0 0 0 0 127 0" result="hardAlpha"/>
<feOffset dy="4"/>
<feGaussianBlur stdDeviation="2"/>
<feComposite in2="hardAlpha" operator="out"/>
<feColorMatrix type="matrix" values="0 0 0 0 0 0 0 0 0 0 0 0 0 0 0 0 0 0 0.25 0"/>
<feBlend mode="normal" in2="BackgroundImageFix" result="effect1_dropShadow_13_537"/>
<feBlend mode="normal" in="SourceGraphic" in2="effect1_dropShadow_13_537" result="shape"/>
</filter>
<clipPath id="clip0_13_537">
<rect width="1512" height="3863" fill="white"/>
</clipPath>
</defs>
</svg>
