<svg width="1114" height="1674" viewBox="0 0 1114 1674" fill="none" xmlns="http://www.w3.org/2000/svg">
<g filter="url(#filter0_d_498_196)">
<path d="M87.0879 6C135.185 6.00006 174.176 44.999 174.176 93.1064C174.176 132.933 147.453 166.517 110.963 176.898C123.738 313.422 132.374 574.253 132.374 873.581C132.374 1314.25 113.658 1671.48 90.5713 1671.48C67.4847 1671.47 48.7695 1314.24 48.7695 873.581C48.7695 575.448 57.3364 315.506 70.0273 178.54C30.0986 170.608 0 135.374 0 93.1064C8.65712e-05 44.9989 38.9905 6 87.0879 6Z" fill="#89B7B7"/>
</g>
<g filter="url(#filter1_d_498_196)">
<path d="M1017.76 6C1065.86 6.00007 1104.85 44.9989 1104.85 93.1064C1104.85 132.933 1078.13 166.517 1041.64 176.898C1054.41 313.422 1063.05 574.253 1063.05 873.581C1063.05 1314.25 1044.33 1671.48 1021.25 1671.48C998.16 1671.47 979.444 1314.24 979.444 873.581C979.444 575.448 988.011 315.506 1000.7 178.54C960.773 170.608 930.675 135.374 930.675 93.1064C930.675 44.9989 969.665 6 1017.76 6Z" fill="#C691AB"/>
</g>
<g filter="url(#filter2_d_498_196)">
<rect x="82.4463" y="241.726" width="949.698" height="949.898" rx="40" fill="#B7C8CF"/>
</g>
<defs>
<filter id="filter0_d_498_196" x="0" y="0" width="183.176" height="1673.48" filterUnits="userSpaceOnUse" color-interpolation-filters="sRGB">
<feFlood flood-opacity="0" result="BackgroundImageFix"/>
<feColorMatrix in="SourceAlpha" type="matrix" values="0 0 0 0 0 0 0 0 0 0 0 0 0 0 0 0 0 0 127 0" result="hardAlpha"/>
<feOffset dx="5" dy="-2"/>
<feGaussianBlur stdDeviation="2"/>
<feComposite in2="hardAlpha" operator="out"/>
<feColorMatrix type="matrix" values="0 0 0 0 0 0 0 0 0 0 0 0 0 0 0 0 0 0 0.25 0"/>
<feBlend mode="normal" in2="BackgroundImageFix" result="effect1_dropShadow_498_196"/>
<feBlend mode="normal" in="SourceGraphic" in2="effect1_dropShadow_498_196" result="shape"/>
</filter>
<filter id="filter1_d_498_196" x="930.675" y="0" width="183.176" height="1673.48" filterUnits="userSpaceOnUse" color-interpolation-filters="sRGB">
<feFlood flood-opacity="0" result="BackgroundImageFix"/>
<feColorMatrix in="SourceAlpha" type="matrix" values="0 0 0 0 0 0 0 0 0 0 0 0 0 0 0 0 0 0 127 0" result="hardAlpha"/>
<feOffset dx="5" dy="-2"/>
<feGaussianBlur stdDeviation="2"/>
<feComposite in2="hardAlpha" operator="out"/>
<feColorMatrix type="matrix" values="0 0 0 0 0 0 0 0 0 0 0 0 0 0 0 0 0 0 0.25 0"/>
<feBlend mode="normal" in2="BackgroundImageFix" result="effect1_dropShadow_498_196"/>
<feBlend mode="normal" in="SourceGraphic" in2="effect1_dropShadow_498_196" result="shape"/>
</filter>
<filter id="filter2_d_498_196" x="78.4463" y="241.726" width="957.698" height="957.898" filterUnits="userSpaceOnUse" color-interpolation-filters="sRGB">
<feFlood flood-opacity="0" result="BackgroundImageFix"/>
<feColorMatrix in="SourceAlpha" type="matrix" values="0 0 0 0 0 0 0 0 0 0 0 0 0 0 0 0 0 0 127 0" result="hardAlpha"/>
<feOffset dy="4"/>
<feGaussianBlur stdDeviation="2"/>
<feComposite in2="hardAlpha" operator="out"/>
<feColorMatrix type="matrix" values="0 0 0 0 0 0 0 0 0 0 0 0 0 0 0 0 0 0 0.25 0"/>
<feBlend mode="normal" in2="BackgroundImageFix" result="effect1_dropShadow_498_196"/>
<feBlend mode="normal" in="SourceGraphic" in2="effect1_dropShadow_498_196" result="shape"/>
</filter>
</defs>
</svg>
