<svg width="892" height="576" viewBox="0 0 892 576" fill="none" xmlns="http://www.w3.org/2000/svg">
<g filter="url(#filter0_d_13_562)">
<path d="M428.255 0C476.306 0 518.298 28.1425 540.996 70.0645C559.32 59.4437 580.249 53.421 602.475 53.4209C663.278 53.4209 714.38 98.4844 728.963 159.509C738.098 157.314 747.592 156.155 757.335 156.155C829.499 156.155 888 219.629 888 297.928C888 376.226 829.499 439.7 757.335 439.7C731.778 439.7 707.936 431.737 687.799 417.977C687.913 420.408 687.972 422.855 687.972 425.316C687.972 503.615 629.471 567.089 557.307 567.089C505.455 567.089 460.658 534.319 439.548 486.826C418.437 534.319 373.64 567.089 321.789 567.089C249.778 567.089 191.374 503.884 191.127 425.814C174.037 434.713 154.887 439.7 134.664 439.7C62.5004 439.7 4.00017 376.226 4 297.928C4 219.629 62.5003 156.155 134.664 156.155C145.262 156.155 155.564 157.525 165.431 160.108C165.354 158.116 165.313 156.112 165.313 154.1C165.314 75.8011 223.815 12.3281 295.979 12.3281C316.225 12.3282 335.396 17.3253 352.502 26.2441C373.87 9.71993 400.016 0.000105068 428.255 0Z" fill="white"/>
</g>
<defs>
<filter id="filter0_d_13_562" x="0" y="0" width="892" height="575.089" filterUnits="userSpaceOnUse" color-interpolation-filters="sRGB">
<feFlood flood-opacity="0" result="BackgroundImageFix"/>
<feColorMatrix in="SourceAlpha" type="matrix" values="0 0 0 0 0 0 0 0 0 0 0 0 0 0 0 0 0 0 127 0" result="hardAlpha"/>
<feOffset dy="4"/>
<feGaussianBlur stdDeviation="2"/>
<feComposite in2="hardAlpha" operator="out"/>
<feColorMatrix type="matrix" values="0 0 0 0 0 0 0 0 0 0 0 0 0 0 0 0 0 0 0.25 0"/>
<feBlend mode="normal" in2="BackgroundImageFix" result="effect1_dropShadow_13_562"/>
<feBlend mode="normal" in="SourceGraphic" in2="effect1_dropShadow_13_562" result="shape"/>
</filter>
</defs>
</svg>
